<mxfile host="65bd71144e">
    <diagram name="Seite-1" id="WJX_U9h5nkhjxvfmdbLc">
        <mxGraphModel dx="1401" dy="-542" grid="1" gridSize="10" guides="1" tooltips="1" connect="1" arrows="1" fold="1" page="1" pageScale="1" pageWidth="827" pageHeight="1169" math="0" shadow="0">
            <root>
                <mxCell id="0"/>
                <mxCell id="1" parent="0"/>
                <mxCell id="KMIlPVBciEMnDsCh0Et--1" value="Scheduling Client" style="shape=umlLifeline;perimeter=lifelinePerimeter;container=1;collapsible=0;recursiveResize=0;rounded=0;shadow=0;strokeWidth=1;" parent="1" vertex="1">
                    <mxGeometry x="121" y="1490" width="100" height="160" as="geometry"/>
                </mxCell>
                <mxCell id="KMIlPVBciEMnDsCh0Et--2" value="" style="points=[];perimeter=orthogonalPerimeter;rounded=0;shadow=0;strokeWidth=1;" parent="KMIlPVBciEMnDsCh0Et--1" vertex="1">
                    <mxGeometry x="45" y="70" width="10" height="60" as="geometry"/>
                </mxCell>
                <mxCell id="KMIlPVBciEMnDsCh0Et--3" value="Trigger" style="verticalAlign=bottom;startArrow=oval;endArrow=block;startSize=8;shadow=0;strokeWidth=1;" parent="KMIlPVBciEMnDsCh0Et--1" target="KMIlPVBciEMnDsCh0Et--2" edge="1">
                    <mxGeometry relative="1" as="geometry">
                        <mxPoint x="-15" y="70" as="sourcePoint"/>
                    </mxGeometry>
                </mxCell>
                <mxCell id="KMIlPVBciEMnDsCh0Et--4" value="Scheduling Server" style="shape=umlLifeline;perimeter=lifelinePerimeter;container=1;collapsible=0;recursiveResize=0;rounded=0;shadow=0;strokeWidth=1;" parent="1" vertex="1">
                    <mxGeometry x="441" y="1490" width="140" height="160" as="geometry"/>
                </mxCell>
                <mxCell id="KMIlPVBciEMnDsCh0Et--5" value="" style="points=[];perimeter=orthogonalPerimeter;rounded=0;shadow=0;strokeWidth=1;" parent="KMIlPVBciEMnDsCh0Et--4" vertex="1">
                    <mxGeometry x="65" y="80" width="10" height="50" as="geometry"/>
                </mxCell>
                <mxCell id="KMIlPVBciEMnDsCh0Et--6" value="Response containing updated Appointment" style="verticalAlign=bottom;endArrow=open;dashed=1;endSize=8;exitX=0;exitY=0.95;shadow=0;strokeWidth=1;" parent="KMIlPVBciEMnDsCh0Et--4" edge="1">
                    <mxGeometry relative="1" as="geometry">
                        <mxPoint x="-265" y="109.99999999999989" as="targetPoint"/>
                        <mxPoint x="65" y="109.99999999999989" as="sourcePoint"/>
                    </mxGeometry>
                </mxCell>
                <mxCell id="KMIlPVBciEMnDsCh0Et--7" value="PUT request containing an Appointment with changed time" style="verticalAlign=bottom;endArrow=block;entryX=0;entryY=0;shadow=0;strokeWidth=1;" parent="1" source="KMIlPVBciEMnDsCh0Et--2" target="KMIlPVBciEMnDsCh0Et--5" edge="1">
                    <mxGeometry relative="1" as="geometry">
                        <mxPoint x="276" y="1570" as="sourcePoint"/>
                    </mxGeometry>
                </mxCell>
            </root>
        </mxGraphModel>
    </diagram>
</mxfile>